<svg width="124" height="67" viewBox="0 0 124 67" fill="none" xmlns="http://www.w3.org/2000/svg">
<g filter="url(#filter0_d)">
<g filter="url(#filter1_d)">
<path d="M118.5 29.5C118.5 36.7854 112.659 43.7701 102.332 49.0227C92.0876 54.2332 77.8303 57.5 62 57.5C46.1697 57.5 31.9124 54.2332 21.6678 49.0227C11.3407 43.7701 5.5 36.7854 5.5 29.5C5.5 22.2146 11.3407 15.2299 21.6678 9.97735C31.9124 4.76677 46.1697 1.5 62 1.5C77.8303 1.5 92.0876 4.76677 102.332 9.97735C112.659 15.2299 118.5 22.2146 118.5 29.5Z" stroke="#FFF500" stroke-width="3" shape-rendering="crispEdges"/>
</g>
<path d="M23 32.4595V28.2973H34.536V32.4595H23Z" fill="#FFF500"/>
<path d="M37.0571 38.4054V33.6486L44.0083 29.3378C45.645 28.3468 46.7887 27.4847 47.4395 26.7514C48.11 25.9982 48.4452 25.2252 48.4452 24.4324C48.4452 23.7387 48.1987 23.1739 47.7057 22.7378C47.2324 22.282 46.5915 22.0541 45.783 22.0541C44.5407 22.0541 43.6237 22.4505 43.0322 23.2432C42.7955 23.5604 42.6279 23.9568 42.5293 24.4324H36.9092C37.1064 23.0847 37.5698 21.8459 38.2995 20.7162C39.9165 18.2387 42.411 17 45.783 17C48.386 17 50.4369 17.6739 51.9355 19.0216C53.454 20.3694 54.2132 22.0739 54.2132 24.1351C54.2132 25.8396 53.73 27.3063 52.7638 28.5351C51.7975 29.7441 50.358 30.9036 48.4452 32.0135L46.3746 33.2027L45.1915 33.6486V33.9459L47.262 33.6486H54.2132V38.4054H37.0571Z" fill="#FFF500"/>
<path d="M59.516 35.9378C57.5637 33.8964 56.5876 31.2505 56.5876 28C56.5876 24.7496 57.5637 22.1036 59.516 20.0622C61.4879 18.0207 63.9627 17 66.9404 17C69.918 17 72.383 18.0207 74.3352 20.0622C76.3072 22.1036 77.2931 24.7496 77.2931 28C77.2931 31.2505 76.3072 33.8964 74.3352 35.9378C72.383 37.9793 69.918 39 66.9404 39C63.9627 39 61.4879 37.9793 59.516 35.9378ZM63.5979 23.5703C62.7697 24.5811 62.3556 26.0577 62.3556 28C62.3556 29.9423 62.7697 31.4189 63.5979 32.4297C64.4261 33.4405 65.5403 33.9459 66.9404 33.9459C68.3405 33.9459 69.4546 33.4405 70.2828 32.4297C71.1111 31.4189 71.5252 29.9423 71.5252 28C71.5252 26.0577 71.1111 24.5811 70.2828 23.5703C69.4546 22.5595 68.3405 22.0541 66.9404 22.0541C65.5403 22.0541 64.4261 22.5595 63.5979 23.5703Z" fill="#FFF500"/>
<path d="M80.9986 25.9486C80.0127 24.9775 79.5197 23.7784 79.5197 22.3514C79.5197 20.9243 80.0127 19.7252 80.9986 18.7541C81.9846 17.7829 83.2171 17.2973 84.6961 17.2973C86.175 17.2973 87.4075 17.7829 88.3935 18.7541C89.3795 19.7252 89.8725 20.9243 89.8725 22.3514C89.8725 23.7784 89.3795 24.9775 88.3935 25.9486C87.4075 26.9198 86.175 27.4054 84.6961 27.4054C83.2171 27.4054 81.9846 26.9198 80.9986 25.9486ZM82.6255 38.4054L95.0489 17.5946H98.8942L86.4708 38.4054H82.6255ZM83.4242 21.073C83.0889 21.4099 82.9213 21.836 82.9213 22.3514C82.9213 22.8667 83.0889 23.2928 83.4242 23.6297C83.7594 23.9667 84.1834 24.1351 84.6961 24.1351C85.2088 24.1351 85.6328 23.9667 85.968 23.6297C86.3032 23.2928 86.4708 22.8667 86.4708 22.3514C86.4708 21.836 86.3032 21.4099 85.968 21.073C85.6328 20.736 85.2088 20.5676 84.6961 20.5676C84.1834 20.5676 83.7594 20.736 83.4242 21.073ZM93.1262 37.2459C92.1402 36.2748 91.6472 35.0757 91.6472 33.6486C91.6472 32.2216 92.1402 31.0225 93.1262 30.0514C94.1122 29.0802 95.3446 28.5946 96.8236 28.5946C98.3026 28.5946 99.535 29.0802 100.521 30.0514C101.507 31.0225 102 32.2216 102 33.6486C102 35.0757 101.507 36.2748 100.521 37.2459C99.535 38.2171 98.3026 38.7027 96.8236 38.7027C95.3446 38.7027 94.1122 38.2171 93.1262 37.2459ZM95.5517 32.3703C95.2165 32.7072 95.0489 33.1333 95.0489 33.6486C95.0489 34.164 95.2165 34.5901 95.5517 34.927C95.8869 35.264 96.3109 35.4324 96.8236 35.4324C97.3363 35.4324 97.7603 35.264 98.0955 34.927C98.4308 34.5901 98.5984 34.164 98.5984 33.6486C98.5984 33.1333 98.4308 32.7072 98.0955 32.3703C97.7603 32.0333 97.3363 31.8649 96.8236 31.8649C96.3109 31.8649 95.8869 32.0333 95.5517 32.3703Z" fill="#FFF500"/>
</g>
<defs>
<filter id="filter0_d" x="0" y="0" width="124" height="67" filterUnits="userSpaceOnUse" color-interpolation-filters="sRGB">
<feFlood flood-opacity="0" result="BackgroundImageFix"/>
<feColorMatrix in="SourceAlpha" type="matrix" values="0 0 0 0 0 0 0 0 0 0 0 0 0 0 0 0 0 0 127 0" result="hardAlpha"/>
<feOffset dy="4"/>
<feGaussianBlur stdDeviation="2"/>
<feComposite in2="hardAlpha" operator="out"/>
<feColorMatrix type="matrix" values="0 0 0 0 0 0 0 0 0 0 0 0 0 0 0 0 0 0 0.25 0"/>
<feBlend mode="normal" in2="BackgroundImageFix" result="effect1_dropShadow"/>
<feBlend mode="normal" in="SourceGraphic" in2="effect1_dropShadow" result="shape"/>
</filter>
<filter id="filter1_d" x="0" y="0" width="124" height="67" filterUnits="userSpaceOnUse" color-interpolation-filters="sRGB">
<feFlood flood-opacity="0" result="BackgroundImageFix"/>
<feColorMatrix in="SourceAlpha" type="matrix" values="0 0 0 0 0 0 0 0 0 0 0 0 0 0 0 0 0 0 127 0" result="hardAlpha"/>
<feOffset dy="4"/>
<feGaussianBlur stdDeviation="2"/>
<feComposite in2="hardAlpha" operator="out"/>
<feColorMatrix type="matrix" values="0 0 0 0 0 0 0 0 0 0 0 0 0 0 0 0 0 0 0.25 0"/>
<feBlend mode="normal" in2="BackgroundImageFix" result="effect1_dropShadow"/>
<feBlend mode="normal" in="SourceGraphic" in2="effect1_dropShadow" result="shape"/>
</filter>
</defs>
</svg>
